<svg width="44" height="44" viewBox="0 0 44 44" fill="none" xmlns="http://www.w3.org/2000/svg">
<path d="M21.5413 5.5C22.2374 5.5 22.8129 6.01702 22.904 6.68815L22.9167 6.87473L22.9189 20.1667H36.2162C36.9756 20.1667 37.5912 20.7823 37.5912 21.5417C37.5912 22.2378 37.0738 22.8131 36.4028 22.9042L36.2162 22.9167H22.9189L22.9225 36.2067C22.9227 36.9661 22.3073 37.5821 21.5479 37.5821C20.8518 37.5821 20.2763 37.0651 20.1852 36.3939L20.1725 36.2072L20.1689 22.9167H6.87903C6.11962 22.9167 5.50403 22.301 5.50403 21.5417C5.50403 20.8456 6.0213 20.2702 6.69245 20.1791L6.87903 20.1667H20.1689L20.1667 6.87528C20.1665 6.11589 20.7819 5.5 21.5413 5.5Z" fill="#477FEB"/>
</svg>
