<svg xmlns="http://www.w3.org/2000/svg" width="82" height="82" viewBox="0 0 82 82" fill="none">
  <g clip-path="url(#clip0_4901_4871)">
    <path fill-rule="evenodd" clip-rule="evenodd" d="M19.1425 31.0614C19.5077 30.7483 20.0577 30.7905 20.3708 31.1557L46.2198 61.3001C46.533 61.6653 46.4908 62.2152 46.1255 62.5284L38.4646 69.0977C38.0994 69.4108 37.5495 69.3687 37.2363 69.0034L11.3874 38.859C11.0742 38.4938 11.1164 37.9439 11.4816 37.6307L19.1425 31.0614Z" fill="#E8E8E8"/>
    <path fill-rule="evenodd" clip-rule="evenodd" d="M81.4639 31.3167C81.778 31.6811 81.7374 32.2311 81.373 32.5453L38.7651 69.2854C38.4008 69.5996 37.8507 69.5589 37.5365 69.1946L30.9462 61.5517C30.6321 61.1874 30.6727 60.6373 31.0371 60.3231L73.645 23.583C74.0093 23.2688 74.5594 23.3095 74.8736 23.6739L81.4639 31.3167Z" fill="black"/>
  </g>
  <defs>
    <clipPath id="clip0_4901_4871">
      <rect width="82" height="82" fill="white"/>
    </clipPath>
  </defs>
</svg><svg xmlns="http://www.w3.org/2000/svg" width="82" height="82" viewBox="0 0 82 82" fill="none">
  <g clip-path="url(#clip0_4901_4871)">
    <path fill-rule="evenodd" clip-rule="evenodd" d="M19.1425 31.0614C19.5077 30.7483 20.0577 30.7905 20.3708 31.1557L46.2198 61.3001C46.533 61.6653 46.4908 62.2152 46.1255 62.5284L38.4646 69.0977C38.0994 69.4108 37.5495 69.3687 37.2363 69.0034L11.3874 38.859C11.0742 38.4938 11.1164 37.9439 11.4816 37.6307L19.1425 31.0614Z" fill="#E8E8E8"/>
    <path fill-rule="evenodd" clip-rule="evenodd" d="M81.4639 31.3167C81.778 31.6811 81.7374 32.2311 81.373 32.5453L38.7651 69.2854C38.4008 69.5996 37.8507 69.5589 37.5365 69.1946L30.9462 61.5517C30.6321 61.1874 30.6727 60.6373 31.0371 60.3231L73.645 23.583C74.0093 23.2688 74.5594 23.3095 74.8736 23.6739L81.4639 31.3167Z" fill="black"/>
  </g>
  <defs>
    <clipPath id="clip0_4901_4871">
      <rect width="82" height="82" fill="white"/>
    </clipPath>
  </defs>
</svg>