<svg width="1440" height="1680" viewBox="0 0 1440 1680" fill="none" xmlns="http://www.w3.org/2000/svg">
<rect width="1437.95" height="1680" rx="10" fill="#DCFBC7"/>
<path d="M951.12 1043L1440 1161.75L1433.12 1680L731 1678.6L951.12 1043Z" fill="#C0ED9F"/>
<ellipse cx="1312.5" cy="1100" rx="124.5" ry="125" fill="#C0ED9F"/>
<ellipse cx="821" cy="1358.5" rx="126" ry="124.5" fill="#DCFBC7"/>
<path d="M4.99999 0H402.636C403.925 0 405.164 0.497702 406.095 1.38926L581.405 169.318C583.393 171.222 583.468 174.375 581.572 176.371L204.388 573.607C202.575 575.516 199.592 575.693 197.567 574.01L1.80498 411.384C0.661494 410.434 0 409.025 0 407.538V5C0 2.23858 2.23857 0 4.99999 0Z" fill="#C0ED9F"/>
<ellipse cx="375" cy="368.5" rx="90" ry="89.5" fill="#DCFBC7"/>
</svg>
