<svg width="1436" height="1681" viewBox="0 0 1436 1681" fill="none" xmlns="http://www.w3.org/2000/svg">
<g clip-path="url(#clip0_3000_4110)">
<rect width="1436" height="1681" fill="white"/>
<rect width="1436" height="1681" fill="#EDEDED"/>
<path d="M375.366 0H10C4.47715 0 0 4.47716 0 10V388.321C0 390.925 1.01594 393.426 2.83175 395.293L150.059 546.654C153.977 550.681 160.443 550.691 164.374 546.676L531.618 171.48C535.404 167.612 535.425 161.434 531.667 157.54L382.561 3.05531C380.676 1.10281 378.079 0 375.366 0Z" fill="#F5F5F5"/>
<path d="M435.368 341.17C435.368 384.983 400.49 420.5 357.465 420.5C314.441 420.5 279.562 384.983 279.562 341.17C279.562 297.357 314.441 261.839 357.465 261.839C400.49 261.839 435.368 297.357 435.368 341.17Z" fill="#EDEDED"/>
<path d="M619 1681H1436.5V1135L875.5 965L619 1681Z" fill="#F5F5F5"/>
<circle cx="1356" cy="1087" r="139" fill="#F5F5F5"/>
<circle cx="722" cy="1390" r="139" fill="#EDEDED"/>
</g>
<defs>
<clipPath id="clip0_3000_4110">
<rect width="1436" height="1681" fill="white"/>
</clipPath>
</defs>
</svg>
