<svg width="36" height="36" viewBox="0 0 36 36" fill="none" xmlns="http://www.w3.org/2000/svg">
<path d="M2.87988 11.5202C2.87988 11.3213 3.04106 11.1602 3.23988 11.1602H32.7599C32.9587 11.1602 33.1199 11.3213 33.1199 11.5202V30.2402C33.1199 30.439 32.9587 30.6002 32.7599 30.6002H3.23988C3.04106 30.6002 2.87988 30.439 2.87988 30.2402V11.5202Z" fill="#E8E8E8"/>
<path d="M2.87988 7.19984C2.87988 7.00102 3.04106 6.83984 3.23988 6.83984H32.7599C32.9587 6.83984 33.1199 7.00102 33.1199 7.19984V11.1598H2.87988V7.19984Z" fill="#787878"/>
<path d="M6.48047 14.7604C6.48047 14.5616 6.64165 14.4004 6.84047 14.4004H9.72047C9.91929 14.4004 10.0805 14.5616 10.0805 14.7604V18.0004H6.48047V14.7604Z" fill="#BBBBBB"/>
<path d="M12.9609 14.7604C12.9609 14.5616 13.1221 14.4004 13.3209 14.4004H16.2009C16.3998 14.4004 16.5609 14.5616 16.5609 14.7604V18.0004H12.9609V14.7604Z" fill="#BBBBBB"/>
<path d="M19.4404 14.7604C19.4404 14.5616 19.6016 14.4004 19.8004 14.4004H22.6804C22.8793 14.4004 23.0404 14.5616 23.0404 14.7604V18.0004H19.4404V14.7604Z" fill="#BBBBBB"/>
<path d="M25.9209 14.7604C25.9209 14.5616 26.0821 14.4004 26.2809 14.4004H29.1609C29.3597 14.4004 29.5209 14.5616 29.5209 14.7604V18.0004H25.9209V14.7604Z" fill="#BBBBBB"/>
<path d="M6.48047 21.2399C6.48047 21.0411 6.64165 20.8799 6.84047 20.8799H9.72047C9.91929 20.8799 10.0805 21.0411 10.0805 21.2399V24.4799H6.48047V21.2399Z" fill="#BBBBBB"/>
<path d="M12.9609 21.2399C12.9609 21.0411 13.1221 20.8799 13.3209 20.8799H16.2009C16.3998 20.8799 16.5609 21.0411 16.5609 21.2399V24.4799H12.9609V21.2399Z" fill="#BBBBBB"/>
<path d="M19.4404 21.2399C19.4404 21.0411 19.6016 20.8799 19.8004 20.8799H22.6804C22.8793 20.8799 23.0404 21.0411 23.0404 21.2399V24.4799H19.4404V21.2399Z" fill="#BBBBBB"/>
<path d="M25.9209 21.2399C25.9209 21.0411 26.0821 20.8799 26.2809 20.8799H29.1609C29.3597 20.8799 29.5209 21.0411 29.5209 21.2399V24.4799H25.9209V21.2399Z" fill="#BBBBBB"/>
<path d="M8.28027 4.68031C8.28027 4.48149 8.44145 4.32031 8.64027 4.32031H10.0803C10.2791 4.32031 10.4403 4.48149 10.4403 4.68031V8.64031H8.28027V4.68031Z" fill="#BBBBBB"/>
<path d="M25.5596 4.68031C25.5596 4.48149 25.7207 4.32031 25.9196 4.32031H27.3596C27.5584 4.32031 27.7196 4.48149 27.7196 4.68031V8.64031H25.5596V4.68031Z" fill="#BBBBBB"/>
</svg>
