<svg width="301" height="300" viewBox="0 0 301 300" fill="none" xmlns="http://www.w3.org/2000/svg">
<g clip-path="url(#clip0_788_2309)">
<ellipse cx="142.98" cy="142.035" rx="142.035" ry="142.035" fill="#FFFCFC"/>
<g clip-path="url(#clip1_788_2309)">
<g filter="url(#filter0_d_788_2309)">
<path d="M143.625 17.4451C212.039 17.4451 267.5 72.9055 267.5 141.319C267.5 209.733 212.039 265.194 143.625 265.194C75.2114 265.194 19.751 209.733 19.751 141.319C19.751 72.9055 75.2114 17.4451 143.625 17.4451ZM183.509 103.781L128.141 159.149L103.742 134.75C100.114 131.122 94.2312 131.122 90.603 134.75C86.9749 138.379 86.9749 144.26 90.603 147.888L121.572 178.857C125.2 182.485 131.082 182.485 134.71 178.857L196.647 116.92C200.276 113.292 200.276 107.41 196.647 103.781C193.019 100.153 187.137 100.153 183.509 103.781Z" fill="#81C84F"/>
</g>
</g>
</g>
<defs>
<filter id="filter0_d_788_2309" x="15.751" y="17.4451" width="255.749" height="255.749" filterUnits="userSpaceOnUse" color-interpolation-filters="sRGB">
<feFlood flood-opacity="0" result="BackgroundImageFix"/>
<feColorMatrix in="SourceAlpha" type="matrix" values="0 0 0 0 0 0 0 0 0 0 0 0 0 0 0 0 0 0 127 0" result="hardAlpha"/>
<feOffset dy="4"/>
<feGaussianBlur stdDeviation="2"/>
<feComposite in2="hardAlpha" operator="out"/>
<feColorMatrix type="matrix" values="0 0 0 0 0 0 0 0 0 0 0 0 0 0 0 0 0 0 0.25 0"/>
<feBlend mode="normal" in2="BackgroundImageFix" result="effect1_dropShadow_788_2309"/>
<feBlend mode="normal" in="SourceGraphic" in2="effect1_dropShadow_788_2309" result="shape"/>
</filter>
<clipPath id="clip0_788_2309">
<rect width="300" height="300" fill="white" transform="translate(0.944336)"/>
</clipPath>
<clipPath id="clip1_788_2309">
<rect width="260" height="260" fill="white" transform="translate(12.9443 12)"/>
</clipPath>
</defs>
</svg>
