<svg xmlns="http://www.w3.org/2000/svg" width="current" height="current" viewBox="0 0 57 56" fill="none">
  <g clip-path="url(#clip0_516_2035)">
    <path d="M13.4051 12.8001C14.0509 12.1818 15.0523 12.1419 15.7436 12.6727L15.924 12.8315L27.9436 24.9451L40.2805 13.1336C40.9851 12.459 42.1128 12.4734 42.7994 13.1655C43.4288 13.8 43.4689 14.784 42.9288 15.463L42.7669 15.6402L30.43 27.4517L42.4492 39.5623C43.1359 40.2542 43.1219 41.3624 42.4173 42.0369C41.7715 42.6553 40.7701 42.6952 40.0788 42.1644L39.8983 42.0055L27.8786 29.8944L15.5486 41.6993C14.8441 42.3738 13.7163 42.3595 13.0298 41.6673C12.4004 41.0328 12.3602 40.049 12.9005 39.3698L13.0623 39.1927L25.3922 27.3878L13.3731 15.2747C12.6864 14.5827 12.7005 13.4746 13.4051 12.8001Z" fill="current"/>
  </g>
  <defs>
    <clipPath id="clip0_516_2035">
      <rect width="57" height="56" fill="white"/>
    </clipPath>
  </defs>
</svg>