<svg width="36" height="36" viewBox="0 0 36 36" fill="none" xmlns="http://www.w3.org/2000/svg">
<g id="application/Compress" clip-path="url(#clip0_2_958)">
<path id="Vector" d="M10.525 24.1096H1.60532C1.25175 24.1096 0.962463 24.3989 0.962463 24.7525V26.681C0.962463 27.0346 1.25175 27.3239 1.60532 27.3239H8.59639V34.3953C8.59639 34.7489 8.88568 35.0382 9.23925 35.0382H11.1678C11.5214 35.0382 11.8107 34.7489 11.8107 34.3953V25.3953C11.8107 24.6841 11.2361 24.1096 10.525 24.1096ZM11.1678 0.966736H9.23925C8.88568 0.966736 8.59639 1.25602 8.59639 1.60959V8.68102H1.60532C1.25175 8.68102 0.962463 8.97031 0.962463 9.32388V11.2525C0.962463 11.606 1.25175 11.8953 1.60532 11.8953H10.525C11.2361 11.8953 11.8107 11.3208 11.8107 10.6096V1.60959C11.8107 1.25602 11.5214 0.966736 11.1678 0.966736ZM34.391 24.1096H25.4714C24.7602 24.1096 24.1857 24.6841 24.1857 25.3953V34.3953C24.1857 34.7489 24.475 35.0382 24.8285 35.0382H26.7571C27.1107 35.0382 27.4 34.7489 27.4 34.3953V27.3239H34.391C34.7446 27.3239 35.0339 27.0346 35.0339 26.681V24.7525C35.0339 24.3989 34.7446 24.1096 34.391 24.1096ZM34.391 8.68102H27.4V1.60959C27.4 1.25602 27.1107 0.966736 26.7571 0.966736H24.8285C24.475 0.966736 24.1857 1.25602 24.1857 1.60959V10.6096C24.1857 11.3208 24.7602 11.8953 25.4714 11.8953H34.391C34.7446 11.8953 35.0339 11.606 35.0339 11.2525V9.32388C35.0339 8.97031 34.7446 8.68102 34.391 8.68102Z" fill="#333333"/>
</g>
<defs>
<clipPath id="clip0_2_958">
<rect width="36" height="36" fill="white"/>
</clipPath>
</defs>
</svg>
