<svg width="88" height="88" viewBox="0 0 88 88" fill="none" xmlns="http://www.w3.org/2000/svg">
<path fill-rule="evenodd" clip-rule="evenodd" d="M73.5336 46.0485L40.4313 56.5018L38.8574 51.5178L71.9596 41.0645L73.5336 46.0485Z" fill="#85C88A"/>
<path fill-rule="evenodd" clip-rule="evenodd" d="M79.1609 16.4599L76.9831 23.4288L74.241 25.2508L68.8855 24.7408L70.9075 31.9624L67.5646 35.1463L55.3243 31.0662V36.1515H50.0977V27.4404L53.5374 24.9611L64.5471 28.631L62.8256 22.4828L65.5899 19.1766L72.6266 19.8468L74.1722 14.9009L79.1609 16.4599Z" fill="#85C88A"/>
<path fill-rule="evenodd" clip-rule="evenodd" d="M14.3822 26.83L19.532 24.0834L17.0724 19.4717L10.539 22.9561L9.15552 25.262V32.6665L10.8217 35.1021L18.6617 38.151L20.556 33.2797L14.3822 30.8788L14.3822 26.83Z" fill="#85C88A"/>
<path fill-rule="evenodd" clip-rule="evenodd" d="M30.991 12.9141L39.7021 21.1896L40.5155 23.0843L40.5155 47.4754H35.2888L35.2888 24.2062L27.3911 16.7034L30.991 12.9141Z" fill="#85C88A"/>
<path d="M58.2624 58.2537L29.7246 29.7159C29.2734 29.2647 28.5061 29.4358 28.2893 30.036L12.3897 74.0657C12.1406 74.7555 12.8033 75.4255 13.4958 75.1841L57.9332 59.6922C58.5397 59.4807 58.7166 58.7079 58.2624 58.2537Z" fill="#85C88A"/>
<path fill-rule="evenodd" clip-rule="evenodd" d="M48.0795 15.106L45.4661 20.3327L40.7913 17.9952L43.4046 12.7686L48.0795 15.106Z" fill="#85C88A"/>
<path fill-rule="evenodd" clip-rule="evenodd" d="M67.2435 9.00834L64.6302 14.235L59.9553 11.8976L62.5687 6.6709L67.2435 9.00834Z" fill="#DFFF00"/>
<path fill-rule="evenodd" clip-rule="evenodd" d="M29.786 23.8174L27.1727 29.0441L22.4978 26.7066L25.1111 21.48L29.786 23.8174Z" fill="#DFFF00"/>
<path fill-rule="evenodd" clip-rule="evenodd" d="M82.0524 38.6265L79.439 43.8532L74.7642 41.5157L77.3775 36.2891L82.0524 38.6265Z" fill="#85C88A"/>
<path fill-rule="evenodd" clip-rule="evenodd" d="M81.1818 57.7906L78.5684 63.0172L73.8936 60.6798L76.5069 55.4531L81.1818 57.7906Z" fill="#85C88A"/>
<path fill-rule="evenodd" clip-rule="evenodd" d="M70.7279 56.9195L68.1146 62.1461L63.4397 59.8087L66.053 54.582L70.7279 56.9195Z" fill="#DFFF00"/>
</svg>
