<svg xmlns="http://www.w3.org/2000/svg" width="24" height="24" viewBox="0 0 24 24" fill="none">
  <path d="M20.0807 14.9606C19.4197 16.1054 18.4866 17.0695 17.3641 17.7676C16.2415 18.4656 14.9641 18.876 13.6451 18.9625C12.326 19.049 11.006 18.8088 9.80193 18.2632C8.59787 17.7177 7.54693 16.8836 6.74222 15.8348C5.9375 14.7861 5.40384 13.5551 5.18851 12.2509C4.97318 10.9466 5.08282 9.60943 5.50773 8.35769C5.93264 7.10595 6.6597 5.97832 7.6245 5.07469C8.5893 4.17105 9.76207 3.5193 11.0389 3.17717L10.8704 3.96204C9.62725 9.75252 14.1619 15.1676 20.0807 14.9606Z" fill="#1E1E1E"/>
</svg>