<svg width="36" height="36" viewBox="0 0 36 36" fill="none" xmlns="http://www.w3.org/2000/svg">
<g id="application/Expand" clip-path="url(#clip0_2_1079)">
<path id="Vector" d="M11.17 0.966675H2.25031C1.53915 0.966675 0.9646 1.54123 0.9646 2.25239V11.2524C0.9646 11.606 1.25389 11.8952 1.60746 11.8952H3.53603C3.8896 11.8952 4.17889 11.606 4.17889 11.2524V4.18096H11.17C11.5235 4.18096 11.8128 3.89167 11.8128 3.5381V1.60953C11.8128 1.25596 11.5235 0.966675 11.17 0.966675ZM34.3932 24.1095H32.4646C32.111 24.1095 31.8217 24.3988 31.8217 24.7524V31.8238H24.8307C24.4771 31.8238 24.1878 32.1131 24.1878 32.4667V34.3952C24.1878 34.7488 24.4771 35.0381 24.8307 35.0381H33.7503C34.4615 35.0381 35.036 34.4636 35.036 33.7524V24.7524C35.036 24.3988 34.7467 24.1095 34.3932 24.1095ZM11.17 31.8238H4.17889V24.7524C4.17889 24.3988 3.8896 24.1095 3.53603 24.1095H1.60746C1.25389 24.1095 0.9646 24.3988 0.9646 24.7524V33.7524C0.9646 34.4636 1.53915 35.0381 2.25031 35.0381H11.17C11.5235 35.0381 11.8128 34.7488 11.8128 34.3952V32.4667C11.8128 32.1131 11.5235 31.8238 11.17 31.8238ZM33.7503 0.966675H24.8307C24.4771 0.966675 24.1878 1.25596 24.1878 1.60953V3.5381C24.1878 3.89167 24.4771 4.18096 24.8307 4.18096H31.8217V11.2524C31.8217 11.606 32.111 11.8952 32.4646 11.8952H34.3932C34.7467 11.8952 35.036 11.606 35.036 11.2524V2.25239C35.036 1.54123 34.4615 0.966675 33.7503 0.966675Z" fill="#333333"/>
</g>
<defs>
<clipPath id="clip0_2_1079">
<rect width="36" height="36" fill="white"/>
</clipPath>
</defs>
</svg>
