<svg width="24" height="24" viewBox="0 0 24 24" fill="none" xmlns="http://www.w3.org/2000/svg">
<path d="M10.9395 4.06055H3.93945C3.40902 4.06055 2.90031 4.27126 2.52524 4.64633C2.15017 5.02141 1.93945 5.53011 1.93945 6.06055V20.0605C1.93945 20.591 2.15017 21.0997 2.52524 21.4748C2.90031 21.8498 3.40902 22.0605 3.93945 22.0605H17.9395C18.4699 22.0605 18.9786 21.8498 19.3537 21.4748C19.7287 21.0997 19.9395 20.591 19.9395 20.0605V13.0605" stroke="#259C2E" stroke-width="2" stroke-linecap="round" stroke-linejoin="round"/>
<path d="M18.4395 2.56077C18.8373 2.16295 19.3768 1.93945 19.9395 1.93945C20.5021 1.93945 21.0416 2.16295 21.4395 2.56077C21.8373 2.9586 22.0608 3.49816 22.0608 4.06077C22.0608 4.62338 21.8373 5.16295 21.4395 5.56077L11.9395 15.0608L7.93945 16.0608L8.93945 12.0608L18.4395 2.56077Z" stroke="#259C2E" stroke-width="2" stroke-linecap="round" stroke-linejoin="round"/>
</svg>
