<svg xmlns="http://www.w3.org/2000/svg" width="18" height="18" viewBox="0 0 18 18" fill="none">
  <path d="M13.6663 9.00065C13.6663 11.578 11.577 13.6673 8.99967 13.6673C6.42235 13.6673 4.33301 11.578 4.33301 9.00065C4.33301 6.42332 6.42235 4.33398 8.99967 4.33398C11.577 4.33398 13.6663 6.42332 13.6663 9.00065Z" fill="white"/>
  <path fill-rule="evenodd" clip-rule="evenodd" d="M9.66602 0V3.33333H7.66602V0H9.66602Z" fill="white"/>
  <path fill-rule="evenodd" clip-rule="evenodd" d="M18 10L14.6667 10L14.6667 8L18 8L18 10Z" fill="white"/>
  <path fill-rule="evenodd" clip-rule="evenodd" d="M9.66602 14.666V17.9993H7.66602V14.666H9.66602Z" fill="white"/>
  <path fill-rule="evenodd" clip-rule="evenodd" d="M3.33301 10L-0.00032529 10L-0.000325203 8L3.33301 8L3.33301 10Z" fill="white"/>
  <path fill-rule="evenodd" clip-rule="evenodd" d="M16.0705 3.3439L13.7134 5.70092L12.2992 4.28671L14.6562 1.92969L16.0705 3.3439Z" fill="white"/>
  <path fill-rule="evenodd" clip-rule="evenodd" d="M5.69937 13.714L3.34235 16.071L1.92813 14.6568L4.28516 12.2998L5.69937 13.714Z" fill="white"/>
  <path fill-rule="evenodd" clip-rule="evenodd" d="M14.6561 16.0705L12.2991 13.7134L13.7133 12.2992L16.0703 14.6562L14.6561 16.0705Z" fill="white"/>
  <path fill-rule="evenodd" clip-rule="evenodd" d="M4.28598 5.69937L1.92896 3.34235L3.34317 1.92813L5.7002 4.28516L4.28598 5.69937Z" fill="white"/>
</svg>