<svg width="67" height="92" viewBox="0 0 67 92" fill="none" xmlns="http://www.w3.org/2000/svg">
<path id="Vector" d="M49.848 78.1963L48.5048 83.9858C47.4734 88.4173 43.6715 91.6264 39.1765 91.9696L38.3767 92H28.6192C24.0473 92 20.0469 89.0333 18.6989 84.7481L18.489 83.9784L17.1474 78.1963H49.848ZM33.5 0C52.0017 0 67 14.9323 67 33.3523C67 43.181 62.6769 52.1829 54.2219 60.2215C54.0588 60.3765 53.9452 60.5757 53.8943 60.7942L51.456 71.2958H15.544L13.1136 60.7951C13.0628 60.5762 12.9487 60.377 12.7855 60.2215C4.32571 52.1829 0 43.181 0 33.3523C0 14.9323 14.9984 0 33.5 0Z" fill="#F6C144"/>
</svg>
