<svg width="48" height="66" viewBox="0 0 48 66" fill="none" xmlns="http://www.w3.org/2000/svg">
<path d="M35.712 56.0973L34.7497 60.2507C34.0108 63.4298 31.2871 65.732 28.0668 65.9782L27.4937 66H20.5033C17.2279 66 14.3619 63.8717 13.3962 60.7975L13.2458 60.2454L12.2847 56.0973H35.712ZM24 0C37.255 0 48 10.7123 48 23.9267C48 30.9777 44.9028 37.4355 38.8456 43.2024C38.7287 43.3136 38.6473 43.4565 38.6109 43.6132L36.864 51.147H11.136L9.39479 43.6139C9.35841 43.4568 9.27671 43.3139 9.15976 43.2024C3.09901 37.4355 0 30.9777 0 23.9267C0 10.7123 10.7451 0 24 0Z" fill="#F6C144"/>
<circle cx="24.5" cy="30.5" r="7.5" fill="#FFFDFD"/>
</svg>
