<svg width="20" height="20" viewBox="0 0 20 20" fill="none" xmlns="http://www.w3.org/2000/svg">
<path d="M10 10C9.15 10 8.43734 9.71234 7.862 9.137C7.28667 8.56167 6.99934 7.84934 7 7C7 6.16667 7.28767 5.45834 7.863 4.875C8.43834 4.29167 9.15067 4 10 4C10.8333 4 11.5417 4.29167 12.125 4.875C12.7083 5.45834 13 6.16667 13 7C13 7.85 12.7083 8.56267 12.125 9.138C11.5417 9.71334 10.8333 10.0007 10 10ZM10 8C10.2833 8 10.521 7.904 10.713 7.712C10.905 7.52 11.0007 7.28267 11 7C11 6.71667 10.904 6.479 10.712 6.287C10.52 6.095 10.2827 5.99934 10 6C9.71667 6 9.479 6.096 9.287 6.288C9.095 6.48 8.99934 6.71734 9 7C9 7.28334 9.096 7.521 9.288 7.713C9.48 7.905 9.71734 8.00067 10 8ZM4 16V14.1C4 13.75 4.08767 13.4207 4.263 13.112C4.43834 12.8033 4.67567 12.5577 4.975 12.375C5.74167 11.925 6.546 11.5833 7.388 11.35C8.23 11.1167 9.10067 11 10 11C10.9 11 11.771 11.1167 12.613 11.35C13.455 11.5833 14.259 11.925 15.025 12.375C15.325 12.5583 15.5627 12.8043 15.738 13.113C15.9133 13.4217 16.0007 13.7507 16 14.1V16H4ZM10 13C9.31667 13 8.65 13.0833 8 13.25C7.35 13.4167 6.73334 13.6667 6.15 14H13.85C13.2667 13.6667 12.65 13.4167 12 13.25C11.35 13.0833 10.6833 13 10 13ZM10 14H13.85H6.15H10ZM2 20C1.45 20 0.979002 19.804 0.587002 19.412C0.195002 19.02 -0.000664969 18.5493 1.69779e-06 18V14H2V18H6V20H2ZM1.69779e-06 6V2C1.69779e-06 1.45 0.196002 0.979002 0.588002 0.587002C0.980002 0.195002 1.45067 -0.000664969 2 1.69779e-06H6V2H2V6H1.69779e-06ZM14 20V18H18V14H20V18C20 18.55 19.804 19.021 19.412 19.413C19.02 19.805 18.5493 20.0007 18 20H14ZM18 6V2H14V1.69779e-06H18C18.55 1.69779e-06 19.021 0.196002 19.413 0.588002C19.805 0.980002 20.0007 1.45067 20 2V6H18Z" fill="#259C2E"/>
</svg>
