<svg xmlns="http://www.w3.org/2000/svg" width="26" height="26" viewBox="0 0 26 26" fill="none">
  <path d="M16.8 10L18 11.2L5.86669 23.3333H4.66669V22.1333L16.8 10ZM21.6 2C21.3334 2 20.9334 2.13333 20.6667 2.4L18.2667 4.8L23.2 9.86666L25.6 7.33333C26.1334 6.8 26.1334 6 25.6 5.46666L22.5334 2.4C22.2667 2.13333 21.8667 2 21.6 2ZM16.8 6.26666L2.00002 20.9333V26H7.06669L21.7334 11.2L16.8 6.26666ZM7.33335 0.666664V4.66666H11.3334V7.33333H7.33335V11.3333H4.66669V7.33333H0.666687V4.66666H4.66669V0.666664H7.33335Z" fill="#F3F7FF"/>
</svg>