<svg xmlns="http://www.w3.org/2000/svg" width="32" height="32" viewBox="0 0 32 32" fill="none">
  <path d="M18.8 12L20 13.2L7.86666 25.3333H6.66666V24.1333L18.8 12ZM23.6 3.99999C23.3333 3.99999 22.9333 4.13332 22.6667 4.39999L20.2667 6.79999L25.2 11.8667L27.6 9.33332C28.1333 8.79999 28.1333 7.99999 27.6 7.46666L24.5333 4.39999C24.2667 4.13332 23.8667 3.99999 23.6 3.99999ZM18.8 8.26666L3.99999 22.9333V28H9.06666L23.7333 13.2L18.8 8.26666ZM9.33332 2.66666V6.66666H13.3333V9.33332H9.33332V13.3333H6.66666V9.33332H2.66666V6.66666H6.66666V2.66666H9.33332Z" fill="#477FEB"/>
</svg>