<svg xmlns="http://www.w3.org/2000/svg" width="82" height="82" viewBox="0 0 82 82" fill="none">
  <path d="M39.9832 9.32164L15.3685 68.4835C15.1298 69.0572 15.5514 69.6892 16.1728 69.6892H65.8191C66.4427 69.6892 66.8644 69.053 66.6213 68.4787L41.5897 9.31683C41.2888 8.60562 40.2798 8.60865 39.9832 9.32164Z" fill="#E8E8E8"/>
  <path fill-rule="evenodd" clip-rule="evenodd" d="M32.6547 27.0459L27.5305 39.5472L50.6106 31.0206L46.7787 21.8279L32.6547 27.0459ZM43.0954 12.9915L41.5466 9.27618C41.2478 8.55929 40.2311 8.5623 39.9366 9.28096L37.5805 15.029L43.0954 12.9915ZM54.294 39.857L22.6047 51.5642L17.4805 64.0655L58.1259 49.0496L54.294 39.857ZM61.8092 57.886L30.0597 69.6155H65.3917C66.0134 69.6155 66.435 68.983 66.1958 68.4092L61.8092 57.886Z" fill="#1E1E1E"/>
  <path d="M74.1016 78.3999C74.1016 78.881 73.7116 79.271 73.2305 79.271L9.63934 79.271C9.15824 79.271 8.76823 78.881 8.76823 78.3999L8.76823 69.6888C8.76823 69.2077 9.15824 68.8177 9.63934 68.8177L73.2305 68.8177C73.7116 68.8177 74.1016 69.2077 74.1016 69.6888L74.1016 78.3999Z" fill="#1E1E1E"/>
</svg>