<svg xmlns="http://www.w3.org/2000/svg" width="80" height="85" viewBox="0 0 80 85" fill="none">
  <path d="M59.2808 1.76201C59.8156 0.682124 60.9091 0 62.1053 0H68.4211C69.6173 0 70.7107 0.682124 71.2455 1.76201L75.456 10.262C75.9284 11.2152 75.8973 12.3436 75.3735 13.2689L71.5789 19.9715V42.5H76.8421C78.5861 42.5 80 43.9272 80 45.6875V53.125H50.5263V45.6875C50.5263 43.9272 51.9402 42.5 53.6842 42.5H58.9474V19.9715L55.1528 13.2689C54.6291 12.3436 54.5979 11.2152 55.0703 10.262L59.2808 1.76201ZM50.5263 59.5V70.125C50.5263 78.3402 57.1242 85 65.2632 85C73.4021 85 80 78.3402 80 70.125V59.5H50.5263ZM28.7515 0.902275C29.6169 0.308933 30.7173 0.186745 31.6898 0.575917C40.2518 4.00248 46.3158 12.4389 46.3158 22.3125C46.3158 31.3398 41.2467 39.1654 33.8345 43.0597V74.2224C33.8345 80.1741 29.0544 84.9991 23.1579 84.9991C17.2613 84.9991 12.4812 80.1741 12.4812 74.2224V43.0597C5.06893 39.1654 0 31.3398 0 22.3125C0 12.4392 6.06337 4.00316 14.625 0.576343C15.5975 0.187085 16.6979 0.309272 17.5634 0.902615C18.4288 1.49591 18.9469 2.4834 18.9469 3.5394V19.1245C18.9469 21.4717 20.832 23.3745 23.1575 23.3745C25.4829 23.3745 27.368 21.4717 27.368 19.1245V3.53902C27.368 2.48306 27.8861 1.49562 28.7515 0.902275Z" fill="#CFCFCF"/>
</svg>