<svg width="107" height="107" viewBox="0 0 107 107" fill="none" xmlns="http://www.w3.org/2000/svg">
<path d="M40.5863 15.4984C37.3194 11.4861 32.3365 8.91669 26.7503 8.91669C16.9012 8.91669 8.91699 16.9009 8.91699 26.75C8.91699 32.3361 11.4868 37.3195 15.4987 40.5861C14.122 44.6386 13.3753 48.9819 13.3753 53.5C13.3753 63.3766 16.9436 72.4194 22.8614 79.4101L14.3547 87.917C13.0489 89.2229 13.0489 91.3397 14.3547 92.6455C15.6605 93.9514 17.7777 93.9514 19.0835 92.6455L27.5901 84.139C34.5809 90.0566 43.6239 93.625 53.5003 93.625C63.3769 93.625 72.4197 90.0566 79.4104 84.139L87.9173 92.6455C89.2232 93.9514 91.34 93.9514 92.6458 92.6455C93.9517 91.3397 93.9517 89.2229 92.6458 87.917L84.1393 79.4101C90.0569 72.4194 93.6253 63.3766 93.6253 53.5C93.6253 48.9819 92.8786 44.6386 91.5018 40.5863C95.5143 37.3195 98.0841 32.3363 98.0841 26.75C98.0841 16.9009 90.0997 8.91669 80.2508 8.91669C74.6645 8.91669 69.6814 11.4862 66.4148 15.4985C62.3622 14.1217 58.0184 13.375 53.5003 13.375C48.9823 13.375 44.6389 14.1217 40.5863 15.4984ZM26.7503 15.6042C29.5634 15.6042 32.1353 16.6457 34.0989 18.3689C27.492 22.0255 22.0258 27.4916 18.3692 34.0986C16.6458 32.1348 15.6045 29.5632 15.6045 26.75C15.6045 20.5944 20.5947 15.6042 26.7503 15.6042ZM72.9021 18.3691C74.8656 16.6457 77.4376 15.6042 80.2508 15.6042C86.4064 15.6042 91.3966 20.5944 91.3966 26.75C91.3966 29.5632 90.3551 32.1352 88.6315 34.0989C84.9753 27.4919 79.5089 22.0257 72.9021 18.3691ZM50.1566 31.2084C52.0032 31.2084 53.5003 32.7054 53.5003 34.5521V53.5H65.7607C67.6074 53.5 69.1045 54.9971 69.1045 56.8438C69.1045 58.6904 67.6074 60.1875 65.7607 60.1875H50.1566C48.3099 60.1875 46.8128 58.6904 46.8128 56.8438V34.5521C46.8128 32.7054 48.3099 31.2084 50.1566 31.2084Z" fill="#929292"/>
</svg>
