<svg xmlns="http://www.w3.org/2000/svg" width="120" height="120" viewBox="0 0 120 120" fill="none">
  <path d="M88.75 0C97.7245 0 105 7.27535 105 16.25V73.75C105 82.7245 97.7245 90 88.75 90H31.25C22.2753 90 15 82.7245 15 73.75V16.25C15 7.27535 22.2753 0 31.25 0H88.75ZM91.6525 82.007L62.6235 53.574C61.298 52.2765 59.2505 52.158 57.794 53.22L57.376 53.574L28.3422 82.0055C29.252 82.3255 30.2306 82.5 31.25 82.5H88.75C89.7675 82.5 90.7445 82.3265 91.6525 82.007ZM88.75 7.5H31.25C26.4175 7.5 22.5 11.4175 22.5 16.25V73.75C22.5 74.792 22.6822 75.7915 23.0163 76.7185L52.129 48.215C56.2945 44.1365 62.8375 43.9425 67.229 47.633L67.871 48.2155L96.982 76.7235C97.317 75.795 97.5 74.794 97.5 73.75V16.25C97.5 11.4175 93.5825 7.5 88.75 7.5ZM76.2605 17.5C82.4795 17.5 87.521 22.5415 87.521 28.7606C87.521 34.9796 82.4795 40.021 76.2605 40.021C70.0415 40.021 65 34.9796 65 28.7606C65 22.5415 70.0415 17.5 76.2605 17.5ZM76.2605 25C74.1835 25 72.5 26.6836 72.5 28.7606C72.5 30.8375 74.1835 32.5211 76.2605 32.5211C78.3375 32.5211 80.021 30.8375 80.021 28.7606C80.021 26.6836 78.3375 25 76.2605 25Z" fill="current"/>
</svg>